# xmcd CD database file
# Copyright (C) 1993-2000  Ti Kan
#
# Track frame offsets:
#	210
#	14552
#	29959
#	45886
#	60465
#	75943
#	90235
#	105572
#	119459
#	132282
#	146467
#	158452
#	173172
#	188711
#	202170
#	214665
#	230740
#	244872
#	258508
#	271453
#	285099
#	297907
#
# Disc length: 4145 seconds
#
# Revision: 1
# Processed by: cddbd v1.4b42PL0 Copyright (c) Steve Scherf et al.
# Submitted via: xmcd 2.6 PL0
#
DISCID=32102f16
DTITLE=Thomas "Fats" Waller - Volume 1, 1923-1929
DYEAR=1900
DGENRE=
TTITLE0=You Can't Do What MY Last Man Did
TTITLE1=Soothin' Syrup Stomp
TTITLE2=Sloppy Water. Blues
TTITLE3=Rusty Pail. Blues
TTITLE4=Stompin' The Bug
TTITLE5=Hog Maw. Stomp
TTITLE6=Fats Waller Stomp
TTITLE7=Savannah Blues
TTITLE8=Won't You Take Me Home
TTITLE9=I've Got The Joogie Blues
TTITLE10=He's Gone Away
TTITLE11=The Digah's Stomp
TTITLE12=Red Hot Dan
TTITLE13=Geechee
TTITLE14=Please Take Me Out Of Jail
TTITLE15=Willow Tree
TTITLE16='Sippi
TTITLE17=Thou Swell
TTITLE18=I've Got A Feeling I'm Falling
TTITLE19=I've Got A Feeling I'm Falling
TTITLE20=Love Me Or Leave Me
TTITLE21=Gladyse
EXTD=The Alternative Takes in Chronological Order\n(Complementing the 
EXTD=French Classics CD-Series]\n\nNetwork RP 2003\n\n(C) 2000 by Network
EXTD=\n
EXTT0=
EXTT1=
EXTT2=
EXTT3=
EXTT4=
EXTT5=
EXTT6=
EXTT7=
EXTT8=
EXTT9=
EXTT10=
EXTT11=
EXTT12=
EXTT13=
EXTT14=
EXTT15=
EXTT16=
EXTT17=
EXTT18=
EXTT19=
EXTT20=
EXTT21=
PLAYORDER=
